HIERARCHY
ROOT Hips
{
	OFFSET 0.000000 0.000000 0.000000
	CHANNELS 6 Xposition Yposition Zposition Zrotation Yrotation Xrotation 
	JOINT LowerBack
	{
		OFFSET 0.000000 0.000000 0.000000
		CHANNELS 3 Zrotation Yrotation Xrotation
		JOINT Spine
		{
			OFFSET 0.028270 2.035590 -0.193380
			CHANNELS 3 Zrotation Yrotation Xrotation
			JOINT Spine1
			{
				OFFSET 0.056720 2.048850 -0.042750
				CHANNELS 3 Zrotation Yrotation Xrotation
				JOINT Neck
				{
					OFFSET 0.000000 0.000000 0.000000
					CHANNELS 3 Zrotation Yrotation Xrotation
					JOINT Neck1
					{
						OFFSET -0.054170 1.746240 0.172020
						CHANNELS 3 Zrotation Yrotation Xrotation
						JOINT Head
						{
							OFFSET 0.104070 1.761360 -0.123970
							CHANNELS 3 Zrotation Yrotation Xrotation
							End Site
							{
								OFFSET 0.000000 0.000000 0.000000
							}
						}
					}
				}
				JOINT LeftShoulder
				{
					OFFSET 0.000000 0.000000 0.000000
					CHANNELS 3 Zrotation Yrotation Xrotation
					JOINT LeftArm
					{
						OFFSET 3.362410 1.200890 -0.311210
						CHANNELS 3 Zrotation Yrotation Xrotation
						JOINT LeftForeArm
						{
							OFFSET 4.983000 -0.000000 -0.000000
							CHANNELS 3 Zrotation Yrotation Xrotation
							JOINT LeftHand
							{
								OFFSET 3.483560 -0.000000 -0.000000
								CHANNELS 3 Zrotation Yrotation Xrotation
								JOINT LeftFingerBase
								{
									OFFSET 0.000000 0.000000 0.000000
									CHANNELS 3 Zrotation Yrotation Xrotation
									JOINT LeftHandIndex1
									{
										OFFSET 0.715260 -0.000000 -0.000000
										CHANNELS 3 Zrotation Yrotation Xrotation
										End Site
										{
											OFFSET 0.000000 0.000000 0.000000
										}
									}
								}
								JOINT LThumb
								{
									OFFSET 0.000000 0.000000 0.000000
									CHANNELS 3 Zrotation Yrotation Xrotation
									End Site
									{
										OFFSET 0.000000 0.000000 0.000000
									}
								}
							}
						}
					}
				}
				JOINT RightShoulder
				{
					OFFSET 0.000000 0.000000 0.000000
					CHANNELS 3 Zrotation Yrotation Xrotation
					JOINT RightArm
					{
						OFFSET -3.136600 1.374050 -0.404650
						CHANNELS 3 Zrotation Yrotation Xrotation
						JOINT RightForeArm
						{
							OFFSET -5.241900 -0.000000 -0.000000
							CHANNELS 3 Zrotation Yrotation Xrotation
							JOINT RightHand
							{
								OFFSET -3.444170 -0.000000 -0.000000
								CHANNELS 3 Zrotation Yrotation Xrotation
								JOINT RightFingerBase
								{
									OFFSET 0.000000 0.000000 0.000000
									CHANNELS 3 Zrotation Yrotation Xrotation
									JOINT RightHandIndex1
									{
										OFFSET -0.622530 -0.000000 -0.000000
										CHANNELS 3 Zrotation Yrotation Xrotation
										End Site
										{
											OFFSET 0.000000 0.000000 0.000000
										}
									}
								}
								JOINT RThumb
								{
									OFFSET 0.000000 0.000000 0.000000
									CHANNELS 3 Zrotation Yrotation Xrotation
									End Site
									{
										OFFSET 0.000000 0.000000 0.000000
									}
								}
							}
						}
					}
				}
			}
		}
	}
}
}
MOTION
Frames: 15
Frame Time: 0.008333
-4.651475 17.025966 -0.430312 136.010994 -82.887205 -117.948031 -3.284320 -0.082002 -10.003153 -1.335272 -0.060623 -4.946455 -6.622954 -0.117606 -0.694809 9.519843 -3.642419 -5.786362 -4.545296 -0.368120 0.474159 0.000000 0.000000 0.000000 -4.912459 10.921142 -1.241456 -60.538735 -13.103428 15.629831 -178.992903 -74.006351 179.893383 21.497029 -22.081282 -4.558576 -0.600909 1.035861 -0.000000 0.000000 0.000000 0.000000 0.000000 0.000000 0.000000 17.189863 1.610800 1.128204 72.765189 2.822438 13.258194 2.130512 41.110198 0.004728 1.003579 1.059289 0.011119 0.028736 -0.134709 0.000000 0.000000 0.000000 0.000000 0.000000 0.000000 0.000000 
-4.645393 17.016150 -0.478637 141.199254 -81.905629 -123.061894 -3.475051 -0.182651 -10.059865 -1.367616 -0.149921 -4.957706 -6.653220 -0.217510 -0.659407 9.646309 -3.668054 -5.901467 -4.522166 -0.366133 0.443590 0.000000 0.000000 0.000000 -4.992033 11.103057 -1.213153 -59.961217 -12.163621 14.956298 -179.065768 -75.042782 179.898656 21.837124 -22.117482 -4.627369 -0.591102 0.994250 -0.000000 0.000000 0.000000 0.000000 0.000000 0.000000 0.000000 17.338831 1.570789 1.121577 72.813574 2.343838 12.957993 2.174305 40.355823 0.004395 0.910281 0.976498 0.009400 0.031732 -0.129300 0.000000 0.000000 0.000000 0.000000 0.000000 0.000000 0.000000 
-4.638414 17.006412 -0.528107 145.410489 -80.827984 -127.208406 -3.676624 -0.275301 -10.116212 -1.405526 -0.229418 -4.967693 -6.685684 -0.307172 -0.618809 9.781173 -3.701909 -6.024375 -4.499950 -0.364117 0.410794 0.000000 0.000000 0.000000 -5.064341 11.310238 -1.179494 -59.401293 -11.226890 14.287769 -179.140228 -76.176093 179.904432 22.177923 -22.139843 -4.692886 -0.580515 0.950939 -0.000000 0.000000 0.000000 0.000000 0.000000 0.000000 0.000000 17.507161 1.531264 1.114487 72.819184 1.907951 12.681261 2.216174 39.666459 0.004099 0.840330 0.856201 0.007783 0.034472 -0.124098 0.000000 0.000000 0.000000 0.000000 0.000000 0.000000 0.000000 
-4.630464 16.996770 -0.578666 148.883333 -79.674408 -130.627187 -3.881947 -0.359845 -10.171383 -1.447001 -0.299865 -4.976124 -6.719080 -0.387320 -0.572595 9.923141 -3.746568 -6.155028 -4.477928 -0.362016 0.375840 0.000000 0.000000 0.000000 -5.123772 11.539925 -1.140527 -58.869783 -10.290793 13.624105 -179.217196 -77.412060 179.910685 22.515355 -22.145642 -4.753624 -0.569007 0.906024 -0.000000 0.000000 0.000000 0.000000 0.000000 0.000000 0.000000 17.689651 1.488462 1.106377 72.786734 1.517721 12.441086 2.256320 39.040865 0.003843 0.796035 0.709451 0.006365 0.036970 -0.119148 0.000000 0.000000 0.000000 0.000000 0.000000 0.000000 0.000000 
-4.621461 16.987224 -0.630258 151.794846 -78.459675 -133.497620 -4.085132 -0.436023 -10.224725 -1.490002 -0.361628 -4.984809 -6.750484 -0.458656 -0.528326 10.066633 -3.797065 -6.285074 -4.456035 -0.359929 0.341195 0.000000 0.000000 0.000000 -5.160339 11.753188 -1.096668 -58.377865 -9.302244 12.943578 -179.297840 -78.732823 179.917296 22.841213 -22.133598 -4.807386 -0.556158 0.859726 0.000000 0.000000 0.000000 0.000000 0.000000 0.000000 0.000000 17.875062 1.445130 1.100123 72.727922 1.165707 12.232158 2.295423 38.473357 0.003641 0.784560 0.548380 0.005150 0.039187 -0.114520 0.000000 0.000000 0.000000 0.000000 0.000000 0.000000 0.000000 
-4.611272 16.977749 -0.682820 154.270494 -77.194296 -135.947873 -4.283034 -0.504190 -10.276201 -1.533510 -0.415468 -4.993485 -6.779232 -0.521911 -0.485216 10.209183 -3.855748 -6.414063 -4.433717 -0.357820 0.307032 0.000000 0.000000 0.000000 -5.172510 11.947929 -1.047831 -57.931011 -8.262329 12.248515 -179.382072 -80.141459 179.924241 23.154037 -22.104388 -4.853969 -0.542018 0.812274 0.000000 0.000000 0.000000 0.000000 0.000000 0.000000 0.000000 18.058059 1.397794 1.094782 72.648505 0.855041 12.064341 2.333558 37.960368 0.003496 0.805224 0.385151 0.004135 0.041145 -0.110249 0.000000 0.000000 0.000000 0.000000 0.000000 0.000000 0.000000 
-4.600068 16.968247 -0.736247 156.405327 -75.884753 -138.071466 -4.473849 -0.565826 -10.325809 -1.576989 -0.463165 -5.000083 -6.806109 -0.578549 -0.435505 10.351216 -3.926876 -6.547919 -4.410201 -0.355549 0.271634 0.000000 0.000000 0.000000 -5.165162 12.157353 -0.993130 -57.529506 -7.217868 11.560722 -179.469474 -81.658486 179.931592 23.460078 -22.062326 -4.895572 -0.527042 0.763917 -0.000000 0.000000 0.000000 0.000000 0.000000 0.000000 0.000000 18.238722 1.341790 1.086212 72.548691 0.596177 11.957941 2.370134 37.502149 0.003396 0.853467 0.226490 0.003222 0.042882 -0.106311 0.000000 0.000000 0.000000 0.000000 0.000000 0.000000 0.000000 
-4.587885 16.958597 -0.790387 158.268744 -74.536467 -139.939837 -4.654338 -0.620356 -10.372720 -1.619553 -0.504517 -5.004206 -6.830632 -0.628288 -0.378391 10.489823 -4.007560 -6.685479 -4.385331 -0.353107 0.235316 0.000000 0.000000 0.000000 -5.139135 12.386551 -0.932249 -57.177068 -6.181884 10.888969 -179.560458 -83.291098 179.939353 23.759806 -22.012848 -4.933486 -0.511355 0.714952 -0.000000 0.000000 0.000000 0.000000 0.000000 0.000000 0.000000 18.412655 1.279755 1.072997 72.432080 0.384854 11.912729 2.404673 37.100728 0.003343 0.925095 0.083173 0.002210 0.044405 -0.102728 0.000000 0.000000 0.000000 0.000000 0.000000 0.000000 0.000000 
-4.574696 16.948747 -0.845076 159.913632 -73.152667 -141.607940 -4.821313 -0.667382 -10.416251 -1.660071 -0.539448 -5.007700 -6.851260 -0.671348 -0.321649 10.618520 -4.092527 -6.817943 -4.359893 -0.350662 0.200644 0.000000 0.000000 0.000000 -5.094210 12.595691 -0.865704 -56.873738 -5.102008 10.211526 -179.655018 -85.012644 179.947436 24.049682 -21.959868 -4.967912 -0.494770 0.665647 0.000000 0.000000 0.000000 0.000000 0.000000 0.000000 0.000000 18.571846 1.214851 1.058413 72.307125 0.216182 11.919315 2.437682 36.747709 0.003341 1.020310 -0.039131 0.001300 0.045716 -0.099533 0.000000 0.000000 0.000000 0.000000 0.000000 0.000000 0.000000 
-4.560549 16.938577 -0.900085 161.380007 -71.735420 -143.117516 -4.972406 -0.707111 -10.454740 -1.698094 -0.568469 -5.008677 -6.869105 -0.707910 -0.259534 10.737350 -4.180160 -6.949472 -4.333947 -0.348150 0.166335 0.000000 0.000000 0.000000 -5.037471 12.817857 -0.792806 -56.617818 -4.028923 9.552777 -179.753506 -86.843538 179.955922 24.335422 -21.910738 -5.001744 -0.477686 0.616219 0.000000 0.000000 0.000000 0.000000 0.000000 0.000000 0.000000 18.718579 1.149603 1.038824 72.171587 0.091525 11.981467 2.468074 36.449183 0.003378 1.131127 -0.138291 0.000390 0.046830 -0.096693 0.000000 0.000000 0.000000 0.000000 0.000000 0.000000 0.000000 
-4.545439 16.928040 -0.955163 162.698765 -70.286899 -144.501677 -5.105250 -0.739195 -10.486418 -1.732995 -0.591484 -5.007302 -6.884166 -0.737885 -0.194262 10.843577 -4.266622 -7.077217 -4.308253 -0.345660 0.133167 0.000000 0.000000 0.000000 -4.972301 13.045341 -0.713848 -56.407347 -2.956836 8.912336 -179.856277 -88.777594 179.964799 24.616101 -21.870499 -5.036077 -0.460121 0.566837 0.000000 0.000000 0.000000 0.000000 0.000000 0.000000 0.000000 18.851559 1.087446 1.014796 72.027307 0.007560 12.093768 2.495513 36.204382 0.003448 1.252061 -0.213204 -0.000516 0.047760 -0.094207 0.000000 0.000000 0.000000 0.000000 0.000000 0.000000 0.000000 
-4.529389 16.917060 -1.010231 163.891301 -68.807435 -145.781810 -5.217878 -0.763551 -10.509807 -1.764270 -0.608627 -5.003211 -6.896682 -0.761327 -0.125833 10.936174 -4.349442 -7.200785 -4.283517 -0.343248 0.101197 0.000000 0.000000 0.000000 -4.902457 13.281434 -0.629213 -56.240065 -1.894535 8.295923 0.036110 -89.184797 -0.025926 24.890964 -21.843750 -5.071910 -0.442136 0.517615 -0.000000 0.000000 0.000000 0.000000 0.000000 0.000000 0.000000 18.972180 1.030809 0.986100 71.874319 -0.037033 12.251893 2.519558 36.013832 0.003543 1.377125 -0.265257 -0.001222 0.048523 -0.092059 0.000000 0.000000 0.000000 0.000000 0.000000 0.000000 0.000000 
-4.512375 16.905657 -1.065113 164.975744 -67.299645 -146.976301 -5.309911 -0.780458 -10.524086 -1.791855 -0.620222 -4.995991 -6.907434 -0.778447 -0.053733 11.015841 -4.423574 -7.320249 -4.260664 -0.340976 0.070297 0.000000 0.000000 0.000000 -4.829530 13.536046 -0.539237 -56.114949 -0.860370 7.714445 -0.077246 -87.038043 -0.016257 25.158934 -21.833121 -5.109842 -0.423804 0.468634 -0.000000 0.000000 0.000000 0.000000 0.000000 0.000000 0.000000 19.084483 0.985427 0.951970 71.712050 -0.047079 12.446008 2.539552 35.881703 0.003656 1.502899 -0.299413 -0.001927 0.049096 -0.090217 0.000000 0.000000 0.000000 0.000000 0.000000 0.000000 0.000000 
-4.494423 16.893938 -1.119751 165.965531 -65.765991 -148.096228 -5.382090 -0.790220 -10.530218 -1.815833 -0.626496 -4.986459 -6.916706 -0.789568 0.019193 11.082452 -4.492473 -7.433804 -4.240523 -0.338951 0.041011 0.000000 0.000000 0.000000 -4.754317 13.790848 -0.445747 -56.028751 0.166910 7.161624 -0.196335 -84.797377 -0.006275 25.413656 -21.837440 -5.148270 -0.404975 0.419935 -0.000000 0.000000 0.000000 0.000000 0.000000 0.000000 0.000000 19.190684 0.946807 0.914600 71.541669 -0.019748 12.674280 2.555848 35.800706 0.003776 1.625325 -0.319267 -0.002431 0.049521 -0.088672 0.000000 0.000000 0.000000 0.000000 0.000000 0.000000 0.000000 
-4.475330 16.882047 -1.174049 166.872384 -64.208995 -149.154144 -5.435440 -0.793512 -10.526517 -1.836551 -0.627975 -4.972947 -6.925652 -0.794898 0.097504 11.140606 -4.542253 -7.544389 -4.224038 -0.337180 0.012230 0.000000 0.000000 0.000000 -4.671941 14.088380 -0.348097 -55.986543 1.124432 6.668862 -0.323460 -82.430612 0.004042 25.655121 -21.860641 -5.188393 -0.385863 0.371611 -0.000000 0.000000 0.000000 0.000000 0.000000 0.000000 0.000000 19.299433 0.931742 0.870093 71.360970 0.029231 12.915544 2.566853 35.787398 0.003901 1.744292 -0.332163 -0.002834 0.049688 -0.087368 0.000000 0.000000 0.000000 0.000000 0.000000 0.000000 0.000000 
